<svg xmlns="http://www.w3.org/2000/svg" version="1.1" xmlns:xlink="http://www.w3.org/1999/xlink" width="1000" height="1000"><metadata><rdf:RDF xmlns:rdf="http://www.w3.org/1999/02/22-rdf-syntax-ns#" xmlns:dc="http://purl.org/dc/elements/1.1/"><rdf:Description><dc:creator>RealFaviconGenerator</dc:creator><dc:source>https://realfavicongenerator.net</dc:source></rdf:Description></rdf:RDF></metadata><g clip-path="url(#SvgjsClipPath1121)"><rect width="1000" height="1000" fill="#ffffff"></rect><g transform="matrix(0.8156606851549756,0,0,0.8156606851549756,-5.684341886080802e-14,-5.684341886080802e-14)"><svg xmlns="http://www.w3.org/2000/svg" version="1.2" viewBox="0 0 1226 1226" width="1226" height="1226"><style>
		.s0 { fill: #ffffff } 
		.s1 { fill: #006838 } 
		.s2 { opacity: .6;mix-blend-mode: hard-light;fill: #006838 } 
		.s3 { mix-blend-mode: overlay;fill: #00aeef } 
		.s4 { mix-blend-mode: overlay;fill: #006838 } 
	</style><g id="_Artboards_">
		<path id="Artboard 1" class="s0" d="m-387 1613h2000v-2000h-2000z"></path>
	</g><g id="background">
	</g><g id="Logo">
		<g id="&lt;Group&gt;">
		</g>
		<path id="&lt;Path&gt;" class="s1" d="m619 558.98c-43.96-54.87-51.39-122.3-44.02-162.93 7.38-40.62 74.63-84.05 94.89-55 54 77.41 94.93 48.55 104.36 56.75 9.44 8.2 88.29 57.1 88.29 57.1 0 0-52.89-76.5-50.95-92.5 7.62-63.04-33.51-114.79-101.75-123.39-68.25-8.59-189.22 38.86-267.99 187.33 0 0 32.54 108.29 177.17 132.64z"></path>
		<path id="&lt;Compound Path&gt;" fill-rule="evenodd" class="s1" d="m839.75 195.19c-13.65 14.09-72.02 37.65-72.02 37.65 0 0 22.1-58.7 35.75-72.79 9.89-10.21 22.68-14.88 32.79-13-8.34 1.1-18.63 6.79-27.51 15.96q-2.31 2.39-4.3 4.87c13.14-11.23 27.93-15.1 34.79-8.46 6.85 6.65 3.45 21.56-7.35 35.04q2.41-2.06 4.73-4.44c8.88-9.18 14.24-19.64 15.08-28.01 2.2 10.04-2.07 22.97-11.96 33.18zm-21.73 1.21c5.49-5.68 6.58-13.54 2.42-17.57-4.15-4.03-11.98-2.69-17.48 2.98-5.49 5.67-6.57 13.53-2.42 17.56 4.16 4.03 11.98 2.7 17.48-2.97z"></path>
		<path id="&lt;Compound Path&gt;" fill-rule="evenodd" class="s1" d="m858.47 251.59c-12.73 4.52-55.96 1.2-55.96 1.2 0 0 31.6-29.47 44.34-33.98 9.22-3.27 18.54-2.24 24.21 2.01-5.48-1.87-13.57-1.51-21.86 1.43q-2.16 0.77-4.14 1.69c11.54-2.91 21.85-0.77 24.05 5.43 2.2 6.2-4.46 14.35-15.26 19.37q2.12-0.54 4.28-1.3c8.29-2.94 14.8-7.76 17.88-12.66-1.72 6.87-8.31 13.54-17.54 16.81zm-13.78-5.91c5.13-1.81 8.21-6.33 6.88-10.09-1.34-3.76-6.57-5.33-11.71-3.51-5.12 1.82-8.19 6.33-6.86 10.09 1.33 3.76 6.57 5.33 11.69 3.51z"></path>
		<path id="&lt;Compound Path&gt;" fill-rule="evenodd" class="s1" d="m774.38 126.21c-0.66 25.61-42.1 99.7-42.1 99.7 0 0-36.73-76.1-36.06-101.71 0.47-18.55 10.07-34.31 23.52-41.39-8.3 8.4-14 22.94-14.42 39.6q-0.11 4.35 0.25 8.48c3.09-22.39 15.8-39.14 30.58-38.76 14.78 0.38 26.61 17.76 28.54 40.29q0.58-4.12 0.7-8.46c0.43-16.67-4.51-31.48-12.37-40.29 13.07 7.75 21.84 23.99 21.36 42.54zm-23.4 20.28c0.27-10.31-6.77-18.85-15.74-19.08-8.96-0.23-16.43 7.94-16.7 18.25-0.27 10.3 6.78 18.85 15.74 19.08 8.96 0.23 16.43-7.94 16.7-18.25z"></path>
		<path id="&lt;Path&gt;" class="s1" d="m621.12 965.67c0 0 5.38 66.72-37.26 111.02 0 0 72.69-29.13 37.26-111.02z"></path>
		<path id="&lt;Path&gt;" class="s1" d="m724.42 832.54c0 0 22.16 58.36-4.51 109.12 0 0 57.52-44.99 4.51-109.12z"></path>
		<path id="&lt;Path&gt;" class="s1" d="m716.37 645.76c0 0 42.48 39.47 41.18 92.72 0 0 29.37-61.15-41.18-92.72z"></path>
		<path id="&lt;Path&gt;" class="s1" d="m350.31 770.12c-23.44 148.55 159.64 177.79 160.54 373.07 47.41-182.71-147.78-244.38-160.54-373.07z"></path>
		<path id="&lt;Path&gt;" class="s1" d="m417.47 463.41c-200.44 327.31 144.14 417.79 144.65 603.04 122.85-313.07-218.81-351.25-144.65-603.04z"></path>
		<path id="&lt;Path&gt;" class="s2" d="m566.67 835.4c-57-127.93-199.77-200.3-149.2-371.99-72.72 221.37 50.25 296.43 149.2 371.99z"></path>
		<path id="&lt;Path&gt;" class="s3" d="m473.57 860.18c-36.93-41.44-50.81-87.86-50.81-87.86 18.46 33.28 70.29 50.78 70.29 50.78-80.5-66.96-78.25-173.04-78.25-173.04l10.94-30.96c-19.43-43.7-26.71-93.09-8.27-155.69-200.44 327.31 144.14 417.79 144.65 603.04 11.26-73.51-51.61-164.84-88.55-206.27z"></path>
		<path id="&lt;Path&gt;" class="s4" d="m484.98 711.86c-16.66-6.66-32.78-11.89-47.33-14.79 12.83 40.64 73.99 98.39 97.49 137.04 23.81 39.16 33.05 102.28 33.05 102.28-14.53-36.79-50.08-59.18-50.08-59.18 63.81 80.18 44.01 189.24 44.01 189.24 69.17-176.28-8.92-265.41-77.14-354.59z"></path>
		<path id="&lt;Path&gt;" class="s1" d="m417.47 463.41c-88.19 332.54 230.97 321.85 278.93 480.84 25.21-300.41-278.03-245.56-278.93-480.84z"></path>
		<path id="&lt;Path&gt;" class="s3" d="m696.4 944.25c-14.25-73.84-81.89-129.79-118.78-155.35-27.58-19.11-75.61-57.78-75.61-57.78 36.26 25.86 70.92 20.59 70.92 20.59-99.87-25.99-114.47-148.02-114.47-148.02l5.28-9.59c-27.48-32.39-46.05-72.74-46.27-130.69-88.19 332.54 230.97 321.85 278.93 480.84z"></path>
		<path id="&lt;Path&gt;" class="s1" d="m463.8 594.17q-5.97-0.37-12.2-0.56c2.66 27.97 112.79 121.21 156.52 158.52 49.7 42.39 61.81 83.48 61.81 83.48-13.56-19.84-66.47-46.47-66.47-46.47 87.5 60.5 92.94 155.11 92.94 155.11 19-226.37-148.49-251.02-232.6-350.08z"></path>
		<path id="&lt;Path&gt;" class="s2" d="m604.65 708.93c-81.39-69.06-186.65-107.04-187.18-245.52-7.75 179.01 97.92 210.26 187.18 245.52z"></path>
		<path id="&lt;Path&gt;" class="s1" d="m417.47 463.41c9.62 266.67 244.05 186.71 315.52 293.86-49.1-228.62-261.75-119.47-315.52-293.86z"></path>
		<path id="&lt;Path&gt;" class="s3" d="m417.47 463.41c9.21 67.01 62.67 120.82 118.54 137.89 88.14 26.92 148.92 76.82 148.92 76.82-36.23-20.32-74.45-20.69-74.45-20.69 81.34 15.56 122.51 99.84 122.51 99.84-49.1-228.62-261.75-119.47-315.52-293.86z"></path>
		<path id="&lt;Path&gt;" class="s4" d="m594.67 664.51c-34.9-7.06-60.36-26.53-60.36-26.53 33.6 13.36 69.62 5.13 69.62 5.13-139.59-20.13-137.2-103.71-137.2-103.71-21.11-17.2-38.42-40.83-49.26-75.99 9.62 266.67 244.05 186.71 315.52 293.86-26.1-53.11-103.41-85.71-138.32-92.76z"></path>
		<path id="&lt;Path&gt;" class="s3" d="m704.33 334.88c-27.94-51.43-101.89-25.74-111.96 3.33 0 0 2.41-17.17 15.06-30.99-31.9 26.7-108.28 102.45-97.23 207.6 26.11 19.22 61.45 36.19 108.8 44.16-43.96-54.87-51.39-122.3-44.02-162.93 7.38-40.62 74.63-84.05 94.89-55 54 77.41 94.93 48.55 104.36 56.75 9.44 8.2 88.29 57.1 88.29 57.1l-83.52-78.96c0 0-46.72 10.36-74.67-41.06z"></path>
		<path id="&lt;Path&gt;" class="s3" d="m811.57 362.4c7.62-63.04-33.51-114.79-101.75-123.39-56.71-7.14-149.81 24.43-224.87 120.48 13.71-16.74 56.43-65.69 137.19-89.85 100.3-30.01 139.59 18.39 139.59 18.39-22.15-13.91-54.82-6.04-54.82-6.04 60.67 3.26 82.92 80.43 82.92 80.43l72.69 92.48c0 0-52.89-76.5-50.95-92.5z"></path>
		<path id="&lt;Path&gt;" class="s4" d="m441.83 426.34c0 0 32.54 108.29 177.17 132.64-26.49-33.07-39.7-70.69-44.42-104.27-20.28-32.11-48.81-124.05-16.3-166.68-41.59 30.06-82.85 74.99-116.45 138.31z"></path>
	</g></svg></g></g><defs><clipPath id="SvgjsClipPath1121"><rect width="1000" height="1000" x="0" y="0" rx="500" ry="500"></rect></clipPath></defs></svg>